<svg xmlns="http://www.w3.org/2000/svg" xmlns:xlink="http://www.w3.org/1999/xlink" xmlns:lucid="lucid" width="998" height="763"><g transform="translate(-185 -172)" lucid:page-tab-id="0_0"><path d="M0 0h1600v1280H0z" fill="#fff"/><path d="M233 440a5 5 0 0 1 5-5h140.94a5 5 0 0 1 5 5v182a5 5 0 0 1-5 5H238a5 5 0 0 1-5-5z" fill-opacity="0"/><path d="M233 440a5 5 0 0 1 5-5h140.94a5 5 0 0 1 5 5v182a5 5 0 0 1-5 5H238a5 5 0 0 1-5-5zM233 475h150.94" stroke="#986daf" stroke-width="2" fill="none"/><use xlink:href="#a" transform="matrix(1,0,0,1,243,435.0000000000009) translate(47.572 29.5)"/><use xlink:href="#b" transform="matrix(1,0,0,1,238,477.5000000000009) translate(41.61 26)"/><use xlink:href="#c" transform="matrix(1,0,0,1,238,515.5000000000009) translate(31.152 26)"/><use xlink:href="#d" transform="matrix(1,0,0,1,238,553.5000000000009) translate(49.161 26)"/><use xlink:href="#e" transform="matrix(1,0,0,1,238,591.5000000000009) translate(32.466 26)"/><path d="M372.7 840H571" stroke="#3d4752" stroke-width="2" fill="none"/><path d="M372.73 840.98h-1.12l.03-.07.07-.9-.07-.9-.02-.08h1.13zM572 840.98h-1.03V839H572z" stroke="#3d4752" stroke-width=".05" fill="#3d4752"/><path d="M933 418a5 5 0 0 1 5-5h190a5 5 0 0 1 5 5v220a5 5 0 0 1-5 5H938a5 5 0 0 1-5-5z" fill-opacity="0"/><path d="M933 418a5 5 0 0 1 5-5h190a5 5 0 0 1 5 5v220a5 5 0 0 1-5 5H938a5 5 0 0 1-5-5zM933 453h200" stroke="#986daf" stroke-width="2" fill="none"/><use xlink:href="#f" transform="matrix(1,0,0,1,943,412.9982563149871) translate(66.078 29.5)"/><use xlink:href="#g" transform="matrix(1,0,0,1,938,455.4982563149871) translate(59.486000000000004 26)"/><use xlink:href="#h" transform="matrix(1,0,0,1,938,493.4982563149871) translate(51.098 26)"/><use xlink:href="#i" transform="matrix(1,0,0,1,938,531.4982563149871) translate(12.748999999999995 26)"/><use xlink:href="#j" transform="matrix(1,0,0,1,938,569.4982563149871) translate(51.754999999999995 26)"/><use xlink:href="#k" transform="matrix(1,0,0,1,938,607.4982563149871) translate(60.521 26)"/><path d="M209 620a5 5 0 0 1 5-5h230a5 5 0 0 1 5 5v50a5 5 0 0 1-5 5H214a5 5 0 0 1-5-5z" fill="none"/><use xlink:href="#l" transform="matrix(1,0,0,1,209,615) translate(107.5 33.6)"/><path d="M429 805a5 5 0 0 1 5-5h230a5 5 0 0 1 5 5v50a5 5 0 0 1-5 5H434a5 5 0 0 1-5-5z" fill="none"/><use xlink:href="#m" transform="matrix(1,0,0,1,429,800) translate(107.5 33.6)"/><path d="M1047.2 783.25a5.83 5.83 0 0 1 7.6 0l62.4 53.5a4.3 4.3 0 0 1 0 6.5l-62.4 53.5a5.83 5.83 0 0 1-7.6 0l-62.4-53.5a4.3 4.3 0 0 1 0-6.5z" stroke="#986daf" stroke-width="2" fill-opacity="0"/><use xlink:href="#n" transform="matrix(1,0,0,1,986.0000000000002,785) translate(31.601000000000006 59.5)"/><path d="M573 765a5 5 0 0 1 5-5h190a5 5 0 0 1 5 5v144a5 5 0 0 1-5 5H578a5 5 0 0 1-5-5z" fill-opacity="0"/><path d="M573 765a5 5 0 0 1 5-5h190a5 5 0 0 1 5 5v144a5 5 0 0 1-5 5H578a5 5 0 0 1-5-5zM573 800h200" stroke="#986daf" stroke-width="2" fill="none"/><use xlink:href="#o" transform="matrix(1,0,0,1,583,760) translate(64.71000000000001 29.5)"/><use xlink:href="#p" transform="matrix(1,0,0,1,578,802.5) translate(58.757000000000005 26)"/><use xlink:href="#q" transform="matrix(1,0,0,1,578,840.5) translate(50.36899999999999 26)"/><use xlink:href="#r" transform="matrix(1,0,0,1,578,878.5) translate(12.019999999999996 26)"/><path d="M981.5 841.4H775" stroke="#3d4752" stroke-width="2" fill="none"/><path d="M982.37 840.9l.24.9.28.58h-1.4v-1.95h.85zM775.03 842.38H774v-1.95h1.03z" stroke="#3d4752" stroke-width=".05" fill="#3d4752"/><path d="M903 641a5 5 0 0 1 5-5h230a5 5 0 0 1 5 5v50a5 5 0 0 1-5 5H908a5 5 0 0 1-5-5z" fill="none"/><use xlink:href="#s" transform="matrix(1,0,0,1,903,635.9982563149871) translate(107.5 33.6)"/><path d="M680 805a5 5 0 0 1 5-5h230a5 5 0 0 1 5 5v50a5 5 0 0 1-5 5H685a5 5 0 0 1-5-5z" fill="none"/><use xlink:href="#l" transform="matrix(1,0,0,1,680,800) translate(107.5 33.6)"/><path d="M299.2 196.25a5.83 5.83 0 0 1 7.6 0l62.4 53.5a4.3 4.3 0 0 1 0 6.5l-62.4 53.5a5.83 5.83 0 0 1-7.6 0l-62.4-53.5a4.3 4.3 0 0 1 0-6.5z" stroke="#986daf" stroke-width="2" fill-opacity="0"/><use xlink:href="#t" transform="matrix(1,0,0,1,238,198) translate(40.628 59.5)"/><path d="M303 433V313.15" stroke="#3d4752" stroke-width="2" fill="none"/><path d="M303.98 434h-1.96v-1.03h1.96zM302.03 312.08l.97.07.97-.07v1.1h-1.95v-1.1z" stroke="#3d4752" stroke-width=".05" fill="#3d4752"/><path d="M593 198a5 5 0 0 1 5-5h150a5 5 0 0 1 5 5v106a5 5 0 0 1-5 5H598a5 5 0 0 1-5-5z" fill-opacity="0"/><path d="M593 198a5 5 0 0 1 5-5h150a5 5 0 0 1 5 5v106a5 5 0 0 1-5 5H598a5 5 0 0 1-5-5zM593 233h160" stroke="#986daf" stroke-width="2" fill="none"/><use xlink:href="#u" transform="matrix(1,0,0,1,603,193) translate(31.93 29.5)"/><use xlink:href="#v" transform="matrix(1,0,0,1,598,235.5) translate(26.129999999999995 26)"/><use xlink:href="#w" transform="matrix(1,0,0,1,598,273.5) translate(44.99400000000001 26)"/><path d="M372.7 253H591" stroke="#3d4752" stroke-width="2" fill="none"/><path d="M372.73 253.97h-1.12l.03-.06.07-.9-.07-.9-.02-.07h1.13zM592 253.97h-1.02v-1.95H592z" stroke="#3d4752" stroke-width=".05" fill="#3d4752"/><path d="M1059.2 196.25a5.83 5.83 0 0 1 7.6 0l62.4 53.5a4.3 4.3 0 0 1 0 6.5l-62.4 53.5a5.83 5.83 0 0 1-7.6 0l-62.4-53.5a4.3 4.3 0 0 1 0-6.5z" stroke="#986daf" stroke-width="2" fill-opacity="0"/><use xlink:href="#x" transform="matrix(1,0,0,1,998,198) translate(1.306999999999988 59.5)"/><path d="M755 253h238.3" stroke="#3d4752" stroke-width="2" fill="none"/><path d="M755.03 252.02v1.95H754v-1.95zM994.37 252.1l-.07.9.07.9.02.07h-1.13v-1.94h1.12z" stroke="#3d4752" stroke-width=".05" fill="#3d4752"/><path d="M1063 411v-97.85" stroke="#3d4752" stroke-width="2" fill="none"/><path d="M1063.97 412h-1.94v-1.03h1.94zM1062.03 312.08l.97.07.97-.07v1.1h-1.94v-1.1z" stroke="#3d4752" stroke-width=".05" fill="#3d4752"/><path d="M205 393a5 5 0 0 1 5-5h230a5 5 0 0 1 5 5v50a5 5 0 0 1-5 5H210a5 5 0 0 1-5-5z" fill="none"/><use xlink:href="#l" transform="matrix(1,0,0,1,205,388) translate(107.5 33.6)"/><path d="M450 218a5 5 0 0 1 5-5h230a5 5 0 0 1 5 5v50a5 5 0 0 1-5 5H455a5 5 0 0 1-5-5z" fill="none"/><use xlink:href="#m" transform="matrix(1,0,0,1,450,213) translate(107.5 33.6)"/><path d="M656 218a5 5 0 0 1 5-5h230a5 5 0 0 1 5 5v50a5 5 0 0 1-5 5H661a5 5 0 0 1-5-5z" fill="none"/><use xlink:href="#m" transform="matrix(1,0,0,1,656,213) translate(107.5 33.6)"/><path d="M923 376a5 5 0 0 1 5-5h230a5 5 0 0 1 5 5v50a5 5 0 0 1-5 5H928a5 5 0 0 1-5-5z" fill="none"/><use xlink:href="#l" transform="matrix(1,0,0,1,923,371) translate(107.5 33.6)"/><path d="M299.2 783.25a5.83 5.83 0 0 1 7.6 0l62.4 53.5a4.3 4.3 0 0 1 0 6.5l-62.4 53.5a5.83 5.83 0 0 1-7.6 0l-62.4-53.5a4.3 4.3 0 0 1 0-6.5z" stroke="#986daf" stroke-width="2" fill-opacity="0"/><use xlink:href="#y" transform="matrix(1,0,0,1,238,785) translate(36.371 59.5)"/><path d="M1047.64 780.75V645" stroke="#3d4752" stroke-width="2" fill="none"/><path d="M1048.6 781.3l-.42.16-.85.46-.67.5v-1.7h1.95zM1048.6 645.02h-1.94V644h1.95z" stroke="#3d4752" stroke-width=".05" fill="#3d4752"/><path d="M303 629v150.85" stroke="#3d4752" stroke-width="2" fill="none"/><path d="M303.98 629.03h-1.96V628h1.96zM303.98 780.92l-.98-.07-.97.07v-1.1h1.95z" stroke="#3d4752" stroke-width=".05" fill="#3d4752"/><defs><path fill="#3d4752" d="M155-210c0 108 64 145 162 145 104 0 169-36 169-145v-486h76v486C562-52 475 9 317 9 165 9 78-51 78-210v-486h77v486" id="z"/><path fill="#3d4752" d="M416-491l-2 65s-111-16-175-16c-62 0-108 16-108 75 0 47 23 61 122 76 132 21 180 48 180 145 0 117-74 156-195 156C174 10 62-9 62-9l4-65s114 17 165 17c82 0 126-18 126-86 0-52-26-64-126-80-122-19-176-43-176-141 0-110 89-146 180-146 75 0 181 19 181 19" id="A"/><path fill="#3d4752" d="M258-58c75 0 183-9 183-9l2 61S330 10 249 10C99 10 50-77 50-247c0-190 83-263 210-263 151 0 219 111 197 292H126c1 105 33 160 132 160zM126-279h260c0-120-39-164-126-164-86 0-134 47-134 164" id="B"/><path fill="#3d4752" d="M87 0v-500h75v66s77-58 174-76v78c-94 18-174 69-174 69V0H87" id="C"/><g id="a"><use transform="matrix(0.018,0,0,0.018,0,0)" xlink:href="#z"/><use transform="matrix(0.018,0,0,0.018,11.52,0)" xlink:href="#A"/><use transform="matrix(0.018,0,0,0.018,20.322,0)" xlink:href="#B"/><use transform="matrix(0.018,0,0,0.018,29.448,0)" xlink:href="#C"/></g><path fill="#3d4752" d="M397-500h74V0h-74v-32s-78 42-148 42C109 10 80-54 80-239v-261h74v260c0 138 12 183 106 183 66 0 137-37 137-37v-406" id="D"/><path fill="#3d4752" d="M27 14h428v70H27V14" id="E"/><path fill="#3d4752" d="M81 0v-500h74V0H81zm0-613v-87h74v87H81" id="F"/><path fill="#3d4752" d="M456-700V0h-75v-33s-77 43-152 43C132 10 50-32 50-248c0-175 56-262 209-262 43 0 107 10 122 13v-203h75zM239-59c67 0 142-37 142-37v-335c-15-2-78-11-118-11-105 0-138 65-138 196 0 160 55 187 114 187" id="G"/><g id="b"><use transform="matrix(0.018,0,0,0.018,0,0)" xlink:href="#D"/><use transform="matrix(0.018,0,0,0.018,10.062,0)" xlink:href="#A"/><use transform="matrix(0.018,0,0,0.018,18.863999999999997,0)" xlink:href="#B"/><use transform="matrix(0.018,0,0,0.018,27.989999999999995,0)" xlink:href="#C"/><use transform="matrix(0.018,0,0,0.018,34.397999999999996,0)" xlink:href="#E"/><use transform="matrix(0.018,0,0,0.018,43.757999999999996,0)" xlink:href="#F"/><use transform="matrix(0.018,0,0,0.018,48.00599999999999,0)" xlink:href="#G"/><path fill="#3d4752" d="M-.9.9h59.58v.9H-.9z"/></g><path fill="#3d4752" d="M162 0H87v-500h75v33s84-43 155-43c137 0 168 68 168 250V0h-74v-259c0-133-15-182-106-182-66 0-143 37-143 37V0" id="H"/><path fill="#3d4752" d="M433-347v246c2 32 26 42 58 46l-3 65c-60 0-92-11-118-38 0 0-90 38-185 38C98 10 49-45 49-143c0-96 49-139 152-148l158-15c7-80-16-132-87-132-73 0-191 13-191 13l-3-65s120-20 197-20c106 0 158 50 158 163zm-74 102l-148 12c-61 6-86 37-86 88 0 58 26 90 71 90 76 0 163-30 163-30v-160" id="I"/><path fill="#3d4752" d="M162 0H87v-500h75v34c-4-5 120-52 180-41 41 7 72 18 92 42 29-11 112-45 181-45 136 0 169 65 169 250V0h-75v-237c0-153-10-204-105-204-68 0-138 36-140 37 21 98 9 281 12 404h-75v-258c0-138-14-183-105-183-67 0-134 37-134 37V0" id="J"/><g id="c"><use transform="matrix(0.018,0,0,0.018,0,0)" xlink:href="#D"/><use transform="matrix(0.018,0,0,0.018,10.062,0)" xlink:href="#A"/><use transform="matrix(0.018,0,0,0.018,18.863999999999997,0)" xlink:href="#B"/><use transform="matrix(0.018,0,0,0.018,27.989999999999995,0)" xlink:href="#C"/><use transform="matrix(0.018,0,0,0.018,34.397999999999996,0)" xlink:href="#H"/><use transform="matrix(0.018,0,0,0.018,44.622,0)" xlink:href="#I"/><use transform="matrix(0.018,0,0,0.018,54.017999999999994,0)" xlink:href="#J"/><use transform="matrix(0.018,0,0,0.018,69.57,0)" xlink:href="#B"/></g><path fill="#3d4752" d="M84 0v-718h74V0H84" id="K"/><g id="d"><use transform="matrix(0.018,0,0,0.018,0,0)" xlink:href="#B"/><use transform="matrix(0.018,0,0,0.018,9.126,0)" xlink:href="#J"/><use transform="matrix(0.018,0,0,0.018,24.677999999999997,0)" xlink:href="#I"/><use transform="matrix(0.018,0,0,0.018,34.074,0)" xlink:href="#F"/><use transform="matrix(0.018,0,0,0.018,38.321999999999996,0)" xlink:href="#K"/></g><path fill="#3d4752" d="M87 222v-722h75v35s75-45 149-45c126 0 181 75 181 254 0 196-63 266-218 266-47 0-98-8-112-11v223H87zm214-663c-66 0-139 39-139 39v334c13 3 65 11 108 11 110 0 146-55 146-201 0-135-43-183-115-183" id="L"/><path fill="#3d4752" d="M28-500h75L203-68h16l120-422h79L537-68h16l101-432h75L610 0H483L378-391 271 0H146" id="M"/><path fill="#3d4752" d="M265-510c151 0 213 84 213 255 0 173-44 265-213 265S50-74 50-257c0-172 57-253 215-253zm0 453c118 0 136-66 136-198 0-133-40-187-136-187-106 0-138 48-138 185 0 140 20 200 138 200" id="N"/><g id="e"><use transform="matrix(0.018,0,0,0.018,0,0)" xlink:href="#L"/><use transform="matrix(0.018,0,0,0.018,9.755999999999998,0)" xlink:href="#I"/><use transform="matrix(0.018,0,0,0.018,19.151999999999997,0)" xlink:href="#A"/><use transform="matrix(0.018,0,0,0.018,27.953999999999997,0)" xlink:href="#A"/><use transform="matrix(0.018,0,0,0.018,36.756,0)" xlink:href="#M"/><use transform="matrix(0.018,0,0,0.018,50.382,0)" xlink:href="#N"/><use transform="matrix(0.018,0,0,0.018,59.885999999999996,0)" xlink:href="#C"/><use transform="matrix(0.018,0,0,0.018,66.294,0)" xlink:href="#G"/></g><path fill="#3d4752" d="M85 0v-696h77V0H85" id="O"/><path fill="#3d4752" d="M262 239C104 239 47 204 47 84c0-58 27-85 79-124-18-12-27-38-27-69 0-19 33-79 33-79-41-19-78-58-78-151 0-123 75-171 186-171 50 0 104 13 104 13l146-3v64h-90c18 19 31 44 31 97 0 149-98 180-243 165 0 0-18 44-18 57 0 40 9 46 121 46 143 0 194 28 194 147 0 116-82 163-223 163zM286-5c-36 0-109-5-109-5-41 31-56 49-56 88 0 69 29 94 142 94 101 0 146-27 146-93 0-76-33-84-123-84zm-49-229c84 0 119-26 119-105 0-86-32-106-117-106-74 0-110 27-110 106 0 72 25 105 108 105" id="P"/><g id="f"><use transform="matrix(0.018,0,0,0.018,0,0)" xlink:href="#O"/><use transform="matrix(0.018,0,0,0.018,4.446,0)" xlink:href="#J"/><use transform="matrix(0.018,0,0,0.018,19.997999999999998,0)" xlink:href="#I"/><use transform="matrix(0.018,0,0,0.018,29.394,0)" xlink:href="#P"/><use transform="matrix(0.018,0,0,0.018,38.717999999999996,0)" xlink:href="#B"/></g><g id="g"><use transform="matrix(0.018,0,0,0.018,0,0)" xlink:href="#F"/><use transform="matrix(0.018,0,0,0.018,4.247999999999999,0)" xlink:href="#J"/><use transform="matrix(0.018,0,0,0.018,19.799999999999997,0)" xlink:href="#I"/><use transform="matrix(0.018,0,0,0.018,29.195999999999998,0)" xlink:href="#P"/><use transform="matrix(0.018,0,0,0.018,38.519999999999996,0)" xlink:href="#B"/><use transform="matrix(0.018,0,0,0.018,47.645999999999994,0)" xlink:href="#E"/><use transform="matrix(0.018,0,0,0.018,57.00599999999999,0)" xlink:href="#F"/><use transform="matrix(0.018,0,0,0.018,61.25399999999999,0)" xlink:href="#G"/><path fill="#3d4752" d="M-.9.9h72.83v.9H-.9z"/></g><path fill="#3d4752" d="M331-432H173v233c0 109 6 139 72 139 28 0 89-5 89-5l4 65s-66 11-101 11C134 11 98-28 98-172v-260H27v-68h71v-153h75v153h158v68" id="Q"/><g id="h"><use transform="matrix(0.018,0,0,0.018,0,0)" xlink:href="#F"/><use transform="matrix(0.018,0,0,0.018,4.247999999999999,0)" xlink:href="#J"/><use transform="matrix(0.018,0,0,0.018,19.799999999999997,0)" xlink:href="#I"/><use transform="matrix(0.018,0,0,0.018,29.195999999999998,0)" xlink:href="#P"/><use transform="matrix(0.018,0,0,0.018,38.519999999999996,0)" xlink:href="#B"/><use transform="matrix(0.018,0,0,0.018,47.645999999999994,0)" xlink:href="#E"/><use transform="matrix(0.018,0,0,0.018,57.00599999999999,0)" xlink:href="#Q"/><use transform="matrix(0.018,0,0,0.018,63.53999999999999,0)" xlink:href="#F"/><use transform="matrix(0.018,0,0,0.018,67.788,0)" xlink:href="#Q"/><use transform="matrix(0.018,0,0,0.018,74.32200000000002,0)" xlink:href="#K"/><use transform="matrix(0.018,0,0,0.018,78.678,0)" xlink:href="#B"/></g><path fill="#3d4752" d="M257-510c46 0 136 15 136 15l-2 65s-80-9-118-9c-115 0-146 48-146 180 0 146 23 199 146 199 38 0 119-9 119-9l3 65s-94 14-139 14C96 10 50-63 50-259c0-181 58-251 207-251" id="R"/><g id="i"><use transform="matrix(0.018,0,0,0.018,0,0)" xlink:href="#F"/><use transform="matrix(0.018,0,0,0.018,4.247999999999999,0)" xlink:href="#J"/><use transform="matrix(0.018,0,0,0.018,19.799999999999997,0)" xlink:href="#I"/><use transform="matrix(0.018,0,0,0.018,29.195999999999998,0)" xlink:href="#P"/><use transform="matrix(0.018,0,0,0.018,38.519999999999996,0)" xlink:href="#B"/><use transform="matrix(0.018,0,0,0.018,47.645999999999994,0)" xlink:href="#E"/><use transform="matrix(0.018,0,0,0.018,57.00599999999999,0)" xlink:href="#R"/><use transform="matrix(0.018,0,0,0.018,64.87199999999999,0)" xlink:href="#C"/><use transform="matrix(0.018,0,0,0.018,71.27999999999999,0)" xlink:href="#B"/><use transform="matrix(0.018,0,0,0.018,80.40599999999999,0)" xlink:href="#I"/><use transform="matrix(0.018,0,0,0.018,89.80199999999999,0)" xlink:href="#Q"/><use transform="matrix(0.018,0,0,0.018,96.336,0)" xlink:href="#F"/><use transform="matrix(0.018,0,0,0.018,100.584,0)" xlink:href="#N"/><use transform="matrix(0.018,0,0,0.018,110.08800000000001,0)" xlink:href="#H"/><use transform="matrix(0.018,0,0,0.018,120.31200000000001,0)" xlink:href="#E"/><use transform="matrix(0.018,0,0,0.018,129.67200000000003,0)" xlink:href="#G"/><use transform="matrix(0.018,0,0,0.018,139.44600000000003,0)" xlink:href="#I"/><use transform="matrix(0.018,0,0,0.018,148.842,0)" xlink:href="#Q"/><use transform="matrix(0.018,0,0,0.018,155.37600000000003,0)" xlink:href="#B"/></g><g id="j"><use transform="matrix(0.018,0,0,0.018,0,0)" xlink:href="#G"/><use transform="matrix(0.018,0,0,0.018,9.774,0)" xlink:href="#B"/><use transform="matrix(0.018,0,0,0.018,18.9,0)" xlink:href="#A"/><use transform="matrix(0.018,0,0,0.018,27.701999999999998,0)" xlink:href="#R"/><use transform="matrix(0.018,0,0,0.018,35.568,0)" xlink:href="#C"/><use transform="matrix(0.018,0,0,0.018,41.976,0)" xlink:href="#F"/><use transform="matrix(0.018,0,0,0.018,46.224,0)" xlink:href="#L"/><use transform="matrix(0.018,0,0,0.018,55.98,0)" xlink:href="#Q"/><use transform="matrix(0.018,0,0,0.018,62.513999999999996,0)" xlink:href="#F"/><use transform="matrix(0.018,0,0,0.018,66.762,0)" xlink:href="#N"/><use transform="matrix(0.018,0,0,0.018,76.266,0)" xlink:href="#H"/></g><path fill="#3d4752" d="M165-432V0H91v-432H28v-68h63v-45c0-144 36-182 134-182 35 0 101 7 101 7l-1 62s-56-2-85-2c-56 0-75 24-75 116v44h146v68H165" id="S"/><path fill="#3d4752" d="M162 0H87v-730h75v254s84-34 154-34c138 0 169 68 169 249V0h-75v-260c0-132-15-181-105-181-67 0-143 29-143 29V0" id="T"/><g id="k"><use transform="matrix(0.018,0,0,0.018,0,0)" xlink:href="#S"/><use transform="matrix(0.018,0,0,0.018,6.012,0)" xlink:href="#F"/><use transform="matrix(0.018,0,0,0.018,10.259999999999998,0)" xlink:href="#K"/><use transform="matrix(0.018,0,0,0.018,14.616,0)" xlink:href="#B"/><use transform="matrix(0.018,0,0,0.018,23.741999999999997,0)" xlink:href="#E"/><use transform="matrix(0.018,0,0,0.018,33.102,0)" xlink:href="#L"/><use transform="matrix(0.018,0,0,0.018,42.858,0)" xlink:href="#I"/><use transform="matrix(0.018,0,0,0.018,52.254,0)" xlink:href="#Q"/><use transform="matrix(0.018,0,0,0.018,58.788,0)" xlink:href="#T"/></g><path d="M101-251c68 0 85 55 85 127S166 4 100 4C33 4 14-52 14-124c0-73 17-127 87-127zm-1 229c47 0 54-49 54-102s-4-102-53-102c-51 0-55 48-55 102 0 53 5 102 54 102" id="U"/><path d="M33-154v-36h34v36H33zM33 0v-36h34V0H33" id="V"/><path d="M117-194c89-4 53 116 60 194h-32v-121c0-31-8-49-39-48C34-167 62-67 57 0H25l-1-190h30c1 10-1 24 2 32 11-22 29-35 61-36" id="W"/><g id="l"><use transform="matrix(0.05,0,0,0.05,0,0)" xlink:href="#U"/><use transform="matrix(0.05,0,0,0.05,10,0)" xlink:href="#V"/><use transform="matrix(0.05,0,0,0.05,15,0)" xlink:href="#W"/></g><path d="M27 0v-27h64v-190l-56 39v-29l58-41h29v221h61V0H27" id="X"/><g id="m"><use transform="matrix(0.05,0,0,0.05,0,0)" xlink:href="#X"/><use transform="matrix(0.05,0,0,0.05,10,0)" xlink:href="#V"/><use transform="matrix(0.05,0,0,0.05,15,0)" xlink:href="#X"/></g><g id="n"><use transform="matrix(0.018,0,0,0.018,0,0)" xlink:href="#R"/><use transform="matrix(0.018,0,0,0.018,7.866,0)" xlink:href="#N"/><use transform="matrix(0.018,0,0,0.018,17.369999999999997,0)" xlink:href="#H"/><use transform="matrix(0.018,0,0,0.018,27.593999999999994,0)" xlink:href="#Q"/><use transform="matrix(0.018,0,0,0.018,34.12799999999999,0)" xlink:href="#I"/><use transform="matrix(0.018,0,0,0.018,43.523999999999994,0)" xlink:href="#F"/><use transform="matrix(0.018,0,0,0.018,47.77199999999999,0)" xlink:href="#H"/><use transform="matrix(0.018,0,0,0.018,57.99599999999999,0)" xlink:href="#A"/></g><path fill="#3d4752" d="M29 0l190-696h169L575-1h-76l-53-174H156L106 0H29zm248-625L174-249h256L327-625h-50" id="Y"/><path fill="#3d4752" d="M308-510c136 0 183 72 183 251 0 198-54 269-236 269C195 10 87-1 87-1v-717h75v241s75-33 146-33zM254-57c137 0 161-62 161-200 0-130-26-184-114-184-66 0-139 27-139 27v351s65 6 92 6" id="Z"/><g id="o"><use transform="matrix(0.018,0,0,0.018,0,0)" xlink:href="#Y"/><use transform="matrix(0.018,0,0,0.018,10.872,0)" xlink:href="#K"/><use transform="matrix(0.018,0,0,0.018,15.227999999999998,0)" xlink:href="#Z"/><use transform="matrix(0.018,0,0,0.018,24.966,0)" xlink:href="#D"/><use transform="matrix(0.018,0,0,0.018,35.028,0)" xlink:href="#J"/></g><g id="p"><use transform="matrix(0.018,0,0,0.018,0,0)" xlink:href="#I"/><use transform="matrix(0.018,0,0,0.018,9.395999999999999,0)" xlink:href="#K"/><use transform="matrix(0.018,0,0,0.018,13.751999999999999,0)" xlink:href="#Z"/><use transform="matrix(0.018,0,0,0.018,23.49,0)" xlink:href="#D"/><use transform="matrix(0.018,0,0,0.018,33.552,0)" xlink:href="#J"/><use transform="matrix(0.018,0,0,0.018,49.104,0)" xlink:href="#E"/><use transform="matrix(0.018,0,0,0.018,58.464,0)" xlink:href="#F"/><use transform="matrix(0.018,0,0,0.018,62.711999999999996,0)" xlink:href="#G"/><path fill="#3d4752" d="M-.9.9h74.3v.9H-.9z"/></g><g id="q"><use transform="matrix(0.018,0,0,0.018,0,0)" xlink:href="#I"/><use transform="matrix(0.018,0,0,0.018,9.395999999999999,0)" xlink:href="#K"/><use transform="matrix(0.018,0,0,0.018,13.751999999999999,0)" xlink:href="#Z"/><use transform="matrix(0.018,0,0,0.018,23.49,0)" xlink:href="#D"/><use transform="matrix(0.018,0,0,0.018,33.552,0)" xlink:href="#J"/><use transform="matrix(0.018,0,0,0.018,49.104,0)" xlink:href="#E"/><use transform="matrix(0.018,0,0,0.018,58.464,0)" xlink:href="#Q"/><use transform="matrix(0.018,0,0,0.018,64.998,0)" xlink:href="#F"/><use transform="matrix(0.018,0,0,0.018,69.24600000000001,0)" xlink:href="#Q"/><use transform="matrix(0.018,0,0,0.018,75.78000000000002,0)" xlink:href="#K"/><use transform="matrix(0.018,0,0,0.018,80.13600000000001,0)" xlink:href="#B"/></g><g id="r"><use transform="matrix(0.018,0,0,0.018,0,0)" xlink:href="#I"/><use transform="matrix(0.018,0,0,0.018,9.395999999999999,0)" xlink:href="#K"/><use transform="matrix(0.018,0,0,0.018,13.751999999999999,0)" xlink:href="#Z"/><use transform="matrix(0.018,0,0,0.018,23.49,0)" xlink:href="#D"/><use transform="matrix(0.018,0,0,0.018,33.552,0)" xlink:href="#J"/><use transform="matrix(0.018,0,0,0.018,49.104,0)" xlink:href="#E"/><use transform="matrix(0.018,0,0,0.018,58.464,0)" xlink:href="#R"/><use transform="matrix(0.018,0,0,0.018,66.33,0)" xlink:href="#C"/><use transform="matrix(0.018,0,0,0.018,72.738,0)" xlink:href="#B"/><use transform="matrix(0.018,0,0,0.018,81.864,0)" xlink:href="#I"/><use transform="matrix(0.018,0,0,0.018,91.26,0)" xlink:href="#Q"/><use transform="matrix(0.018,0,0,0.018,97.79400000000001,0)" xlink:href="#F"/><use transform="matrix(0.018,0,0,0.018,102.042,0)" xlink:href="#N"/><use transform="matrix(0.018,0,0,0.018,111.54600000000002,0)" xlink:href="#H"/><use transform="matrix(0.018,0,0,0.018,121.77000000000002,0)" xlink:href="#E"/><use transform="matrix(0.018,0,0,0.018,131.13000000000002,0)" xlink:href="#G"/><use transform="matrix(0.018,0,0,0.018,140.90400000000002,0)" xlink:href="#I"/><use transform="matrix(0.018,0,0,0.018,150.3,0)" xlink:href="#Q"/><use transform="matrix(0.018,0,0,0.018,156.83399999999997,0)" xlink:href="#B"/></g><g id="s"><use transform="matrix(0.05,0,0,0.05,0,0)" xlink:href="#X"/><use transform="matrix(0.05,0,0,0.05,10,0)" xlink:href="#V"/><use transform="matrix(0.05,0,0,0.05,15,0)" xlink:href="#W"/></g><g id="t"><use transform="matrix(0.018,0,0,0.018,0,0)" xlink:href="#M"/><use transform="matrix(0.018,0,0,0.018,13.626,0)" xlink:href="#C"/><use transform="matrix(0.018,0,0,0.018,20.034,0)" xlink:href="#F"/><use transform="matrix(0.018,0,0,0.018,24.281999999999996,0)" xlink:href="#Q"/><use transform="matrix(0.018,0,0,0.018,30.815999999999992,0)" xlink:href="#B"/><use transform="matrix(0.018,0,0,0.018,39.942,0)" xlink:href="#A"/></g><path fill="#3d4752" d="M491-83l3 70S383 10 304 10C97 10 51-117 51-346c0-235 49-360 253-360 91 0 191 23 191 23l-4 69s-109-17-179-17c-155 0-182 93-182 285 0 188 26 281 184 281 62 0 177-18 177-18" id="aa"/><g id="u"><use transform="matrix(0.018,0,0,0.018,0,0)" xlink:href="#aa"/><use transform="matrix(0.018,0,0,0.018,9.648,0)" xlink:href="#N"/><use transform="matrix(0.018,0,0,0.018,19.152,0)" xlink:href="#J"/><use transform="matrix(0.018,0,0,0.018,34.704,0)" xlink:href="#J"/><use transform="matrix(0.018,0,0,0.018,50.25599999999999,0)" xlink:href="#B"/><use transform="matrix(0.018,0,0,0.018,59.382,0)" xlink:href="#H"/><use transform="matrix(0.018,0,0,0.018,69.606,0)" xlink:href="#Q"/></g><g id="v"><use transform="matrix(0.018,0,0,0.018,0,0)" xlink:href="#R"/><use transform="matrix(0.018,0,0,0.018,7.866,0)" xlink:href="#N"/><use transform="matrix(0.018,0,0,0.018,17.369999999999997,0)" xlink:href="#J"/><use transform="matrix(0.018,0,0,0.018,32.922,0)" xlink:href="#J"/><use transform="matrix(0.018,0,0,0.018,48.474,0)" xlink:href="#B"/><use transform="matrix(0.018,0,0,0.018,57.599999999999994,0)" xlink:href="#H"/><use transform="matrix(0.018,0,0,0.018,67.824,0)" xlink:href="#Q"/><use transform="matrix(0.018,0,0,0.018,74.358,0)" xlink:href="#E"/><use transform="matrix(0.018,0,0,0.018,83.718,0)" xlink:href="#F"/><use transform="matrix(0.018,0,0,0.018,87.96600000000001,0)" xlink:href="#G"/><path fill="#3d4752" d="M-.9.9h99.54v.9H-.9z"/></g><g id="w"><use transform="matrix(0.018,0,0,0.018,0,0)" xlink:href="#R"/><use transform="matrix(0.018,0,0,0.018,7.866,0)" xlink:href="#N"/><use transform="matrix(0.018,0,0,0.018,17.369999999999997,0)" xlink:href="#H"/><use transform="matrix(0.018,0,0,0.018,27.593999999999994,0)" xlink:href="#Q"/><use transform="matrix(0.018,0,0,0.018,34.12799999999999,0)" xlink:href="#B"/><use transform="matrix(0.018,0,0,0.018,43.25399999999999,0)" xlink:href="#H"/><use transform="matrix(0.018,0,0,0.018,53.47799999999999,0)" xlink:href="#Q"/></g><g id="x"><use transform="matrix(0.018,0,0,0.018,0,0)" xlink:href="#I"/><use transform="matrix(0.018,0,0,0.018,9.395999999999999,0)" xlink:href="#A"/><use transform="matrix(0.018,0,0,0.018,18.198,0)" xlink:href="#A"/><use transform="matrix(0.018,0,0,0.018,26.999999999999996,0)" xlink:href="#N"/><use transform="matrix(0.018,0,0,0.018,36.504,0)" xlink:href="#R"/><use transform="matrix(0.018,0,0,0.018,44.37,0)" xlink:href="#F"/><use transform="matrix(0.018,0,0,0.018,48.617999999999995,0)" xlink:href="#I"/><use transform="matrix(0.018,0,0,0.018,58.013999999999996,0)" xlink:href="#Q"/><use transform="matrix(0.018,0,0,0.018,64.548,0)" xlink:href="#B"/><use transform="matrix(0.018,0,0,0.018,73.674,0)" xlink:href="#G"/><use transform="matrix(0.018,0,0,0.018,83.44800000000001,0)" xlink:href="#E"/><use transform="matrix(0.018,0,0,0.018,92.808,0)" xlink:href="#M"/><use transform="matrix(0.018,0,0,0.018,106.43400000000001,0)" xlink:href="#F"/><use transform="matrix(0.018,0,0,0.018,110.68200000000003,0)" xlink:href="#Q"/><use transform="matrix(0.018,0,0,0.018,117.21600000000002,0)" xlink:href="#T"/></g><g id="y"><use transform="matrix(0.018,0,0,0.018,0,0)" xlink:href="#R"/><use transform="matrix(0.018,0,0,0.018,7.866,0)" xlink:href="#C"/><use transform="matrix(0.018,0,0,0.018,14.274,0)" xlink:href="#B"/><use transform="matrix(0.018,0,0,0.018,23.4,0)" xlink:href="#I"/><use transform="matrix(0.018,0,0,0.018,32.796,0)" xlink:href="#Q"/><use transform="matrix(0.018,0,0,0.018,39.33,0)" xlink:href="#B"/><use transform="matrix(0.018,0,0,0.018,48.455999999999996,0)" xlink:href="#A"/></g></defs></g></svg>